<?xml version="1.0" encoding="utf-8"?>
<!-- Generator: Adobe Illustrator 24.0.3, SVG Export Plug-In . SVG Version: 6.00 Build 0)  -->
<svg version="1.1" id="Layer_1" xmlns="http://www.w3.org/2000/svg" xmlns:xlink="http://www.w3.org/1999/xlink" x="0px" y="0px"
	 viewBox="0 0 122.87 122.87" style="enable-background:new 0 0 122.87 122.87;" xml:space="preserve">
<style type="text/css">
	.st0{fill:#E7E9EA;}
</style>
<path class="st0" d="M18,18c24-24,62.91-24,86.9,0s24,62.91,0,86.9s-62.91,24-86.9,0C6.47,93.38,0,77.74,0,61.44
	C-0.02,45.14,6.46,29.51,18,18z M77.38,39l6.53,6.54c1.54,1.56,1.54,4.07,0,5.63L73.6,61.44l10.31,10.31c1.54,1.56,1.54,4.07,0,5.63
	l-6.53,6.53c-1.56,1.54-4.07,1.54-5.63,0L61.44,73.6L51.13,83.91c-1.56,1.54-4.07,1.54-5.63,0L39,77.38c-1.54-1.56-1.54-4.07,0-5.63
	l10.28-10.31L39,51.13c-1.54-1.56-1.54-4.07,0-5.63l6.5-6.5c1.56-1.54,4.07-1.54,5.63,0l10.31,10.28L71.75,39
	C73.31,37.46,75.82,37.46,77.38,39z M61.44,10.54c-28.12,0-50.91,22.8-50.91,50.91c0,28.12,22.8,50.91,50.91,50.91
	s50.91-22.8,50.91-50.91c0-13.5-5.36-26.45-14.91-36C87.9,15.9,74.94,10.53,61.44,10.54z"/>
</svg>
